<?xml version="1.0" encoding="utf-8"?>
<!-- Generator: Adobe Illustrator 17.0.0, SVG Export Plug-In . SVG Version: 6.00 Build 0)  -->
<!DOCTYPE svg PUBLIC "-//W3C//DTD SVG 1.1//EN" "http://www.w3.org/Graphics/SVG/1.1/DTD/svg11.dtd">
<svg version="1.1" id="Layer_1" xmlns="http://www.w3.org/2000/svg" xmlns:xlink="http://www.w3.org/1999/xlink" x="0px" y="0px"
	 width="1017.5223389px" height="280px" viewBox="0 0 1017.5223389 280" style="enable-background:new 0 0 1017.5223389 280;"
	 xml:space="preserve">
<g>
	<path d="M91.4469376,101.325798c10.4401245,2.5930252,20.6104889,7.2253952,26.7164154,16.4871445
		c6.1012802,9.2546921,7.3232422,22.1784821,1.6932373,31.9481354c-2.6724091,4.6373901-6.761322,8.3246765-11.6489258,10.5098267
		c-5.1095047,2.2843628-10.895668,2.7376251-16.3943787,1.916748c-4.7183838-0.7043915-9.2235184-2.5906525-12.7163467-5.8918152
		c-3.5925903-3.395462-5.8811722-7.875885-6.7849045-12.7167206c-1.3527603-7.246048-0.1067886-14.8505707,4.1849289-20.9177551
		c4.2835999-6.0557251,10.7227402-10.411293,17.8343048-12.4155197c-4.1471634-3.0161209-9.4592209-3.5938339-14.4334259-3.0305481
		c-4.0382462,0.4572983-7.9382782,1.841217-11.236908,4.2379761c-7.7061501,5.5992203-10.9087563,15.2873383-13.2122345,24.1197586
		c-2.9322968,11.2435455-4.0137177,22.9163818-4.0376434,34.5130157
		c-0.0206375,10.0038452,0.7721786,20.5592957,4.8561096,29.8268738
		c3.6113625,8.1952057,10.6569824,14.8935242,19.1901474,17.7581024c9.0139923,3.026001,19.4949799,1.8024292,27.8606644-2.5759583
		c4.3159866-2.2588806,8.1384659-5.3664856,11.4319305-8.9419403c0.8585434-0.9320526,1.6825256-1.895813,2.4738617-2.8855133
		c0.2904739-0.3632813,1.5797043-2.4289856,1.9319382-2.2980652c1.2947006,0.4812164,2.5893936,0.9624481,3.8840866,1.4436646
		c0.8427734,0.3132477,0.6523514,0.3096924,0.341156,1.2647552c-0.477005,1.4639587-0.9959946,2.9142456-1.5564117,4.3483582
		c-1.0785675,2.7600861-2.3108826,5.4598541-3.6873779,8.0840759c-2.6748428,5.0994568-5.8475723,10.0153046-9.6716309,14.3322449
		c-7.1688614,8.092865-16.6931381,14.3874664-27.2045593,17.0956879
		c-10.6258087,2.7377014-22.3019218,2.2954254-32.968811-0.0354462c-9.5182571-2.079895-18.5304718-6.1914673-26.0724564-12.3965607
		c-6.6138573-5.4414825-11.6771803-12.2540131-15.1065407-20.0957336
		c-3.9311793-8.9891968-5.7978816-18.7807007-6.5976768-28.517868c-0.9422597-11.4715881-0.6965623-23.2289124,1.6075516-34.5322418
		C4.1631956,141.9520416,8.032629,132.3996277,14.09758,124.14048c6.0793552-8.2787704,14.1709137-14.6477737,23.5702095-18.7596512
		c8.0337639-3.5145035,16.6846428-5.44104,25.4114609-6.1136017C72.5313416,98.5387726,82.2260742,99.0400314,91.4469376,101.325798
		C97.7521057,102.8918228,85.1441803,99.7634048,91.4469376,101.325798z"/>
	<path d="M231.2748108,101.9976425c10.0462341,2.7889404,19.6880188,9.4324799,23.6959534,19.3504333
		c1.7788391,4.4018478,2.4488525,9.1739731,2.8910522,13.8731003c0.5025024,5.3400269,0.6407471,10.7126617,0.6407471,16.0739746
		c0,7.5012817,0,15.0025482,0,22.5038147c0,12.6054077,0,25.2108002,0,37.8162079c0,3.8467712,0,7.6935577,0,11.540329
		c0,0.6726074-0.0020447,1.3452606,0.000824,2.0178833c0.0104065,2.4459839,0.0604858,4.948761,0.5477295,7.35466
		c0.3703918,1.8288574,1.2189331,3.916214,3.3599854,4.057251c3.3352661,0.219696,6.2770996-2.1897125,8.8335266-4.0157318
		c0.5919495,1.035614,1.1838684,2.0712433,1.7758179,3.1068726c0.2783508,0.4870148,0.5567322,0.9740448,0.8351135,1.4610596
		c0.1903992,0.3331451-1.9174194,1.6776123-2.2675781,1.9259796c-4.4851379,3.1811066-9.6088867,5.27034-14.9566956,6.4797058
		c-5.5150452,1.2471619-11.1947784,1.6983643-16.8387909,1.7705536c-5.3063507,0.0678864-10.7361298-0.2480164-15.7985535-1.9685364
		c-8.2454529-2.8023071-13.7894287-10.0501404-14.0453033-18.812561
		c-5.6058655,9.2568207-14.9355927,15.8554535-25.2664795,18.8583069
		c-5.5515289,1.6136475-11.3764496,2.1618805-17.1409454,1.8504181c-5.0838928-0.2746735-10.1842194-1.2728882-14.812561-3.4482422
		c-8.8173676-4.1442261-14.7478027-12.3414917-16.2355347-21.9293518
		c-1.5872192-10.2289429,0.7308655-21.1627808,7.5992737-29.0770721c6.566391-7.5662689,16.122879-12.0823669,25.430191-15.2771606
		c5.3724213-1.8441162,10.7051849-3.8199463,16.0031433-5.8687744c4.3082733-1.6660919,8.6698151-3.3249512,12.6702881-5.6572723
		c4.3278046-2.5231476,9.0315399-5.880661,10.472641-10.9378815c0.5747833-2.0170898,0.4752197-4.0986176,0.4752197-6.1700439
		c0-5.9720459,0-11.9440765,0-17.9161224c0-1.6678009,0.0354156-3.3408661-0.0163574-5.0082779
		c-0.1660614-5.3486938-1.6692352-10.9954376-4.8804779-15.3533936c-2.6007385-3.5294342-6.7642975-5.234375-10.9954529-5.8265228
		c-5.849884-0.8187027-11.5122223,0.3450012-16.7298889,3.0834122c-0.7701416,0.4041977-1.5223694,0.8428192-2.2508087,1.3181686
		c8.1261292,3.0253525,15.1364746,8.6455994,17.4465942,17.2956924c1.2409515,4.6466827,1.3603058,9.8407898-0.1301422,14.437027
		c-1.6542816,5.1015167-5.2398376,9.3286743-9.8002472,12.0919037c-9.2187653,5.5857697-22.6609497,5.9574432-30.8135681-1.7339935
		c-7.9946747-7.5424194-9.5153961-20.9712067-4.2288666-30.4447784c5.1087952-9.1550903,14.9132385-14.236084,24.5517578-17.2973175
		c10.644577-3.3807602,21.9149323-4.5154953,33.0431213-4.5417328
		C213.3598633,98.9583588,222.5487518,99.5722733,231.2748108,101.9976425
		C238.5176697,104.0083389,224.0319672,99.9845276,231.2748108,101.9976425z M198.4137268,174.8950043
		c-7.437561,7.2134705-12.3150635,16.53508-13.2352142,26.9147644c-0.6463013,7.2906494-0.3161926,18.0963898,7.1540527,22.0463867
		c3.4653168,1.8323212,8.0299377,1.9736633,11.6338654,0.5078583c1.1438599-0.4652405,2.2170715-1.0934906,3.200592-1.8387756
		c0.3560486-0.2698212,1.9768524-1.3330688,1.9768524-1.7816315c0-0.2553253,0-0.5106506,0-0.765976
		c0-3.881012,0-7.7620392,0-11.6430511c0-12.337616,0-24.6752319,0-37.0128479c0-2.8327179,0-5.6654358,0-8.4981537
		c-1.0204926,1.7008362-2.3763733,3.2179413-3.6889343,4.6944427
		C203.1964417,170.0586243,200.8166046,172.4916229,198.4137268,174.8950043
		C189.4707336,183.5685425,204.2246857,169.08284,198.4137268,174.8950043z"/>
	<path d="M359.4336548,101.325798c4.2195435,1.0635071,8.4477539,2.3073273,12.40271,4.1456833
		c2.9573059,1.3746109,6.2668457,3.7780075,9.5924377,2.0106506c1.2338257-0.6557007,2.1151733-1.79422,2.7292175-3.0253754
		c0.3911743-0.7843399,0.6858215-1.6147461,0.9208984-2.4581223c0.0710144-0.254715,0.5690002-2.7511978,0.585144-2.7511978
		c1.8300171,0,3.6600037,0,5.4899902,0c-0.5733337,7.656395-0.7375488,15.3467941-0.873291,23.0210419
		c-0.0975342,5.513916-0.1491699,11.0286102-0.1763611,16.5432892c-0.0156555,3.17659-0.0227661,6.3532257-0.0233154,9.5298462
		c-0.0001221,0.6192627-0.3707886,0.3986511-0.934082,0.3986511c-0.8002625,0-1.6004944,0-2.4007568,0
		c-0.6199036,0-1.2398376,0-1.8597717,0c-0.0541077,0-0.2571411,0.0336761-0.3046265,0
		c-0.1003418-0.8394775-0.2113342-1.6776733-0.3335571-2.5142365c-0.4193726-2.8704834-0.9708862-5.7225037-1.6780701-8.5362396
		c-1.3044434-5.190094-3.1451111-10.255722-5.638855-14.9958725c-2.2460938-4.2693481-4.9585876-8.3421478-8.7632141-11.3787079
		c-3.5661011-2.846199-7.8545227-4.5907135-12.3537292-5.2672119c-5.0086365-0.7530899-10.3911133-0.5293121-14.739563,2.3316193
		c-4.33255,2.8504791-6.5223389,7.4675598-6.5223389,12.5963745c0,11.4406967,8.4787903,19.7176437,16.6430054,26.5654984
		c4.4224548,3.7093811,9.0147095,7.1833344,13.5545044,10.7436829c4.2355042,3.3217316,8.3223267,6.854538,12.3126831,10.4656219
		c3.8088989,3.4468536,7.6226807,6.9833984,10.7554626,11.0718994c3.4108276,4.4513702,6.2224426,9.5163422,7.76297,14.9264984
		c3.0827332,10.8262329,1.8945618,22.7977753-4.4580078,32.2185211
		c-6.0703125,9.002121-15.4811401,15.0924683-25.6287842,18.5869446c-11.0184631,3.794342-23.2952576,4.7859802-34.7998962,2.955658
		c-5.0196533-0.7986145-9.9607544-2.249939-14.4822998-4.5966187c-4.5516357-2.3623047-9.0231018-5.0062256-14.1612549-5.8933716
		c-1.7689209-0.3054199-3.5981445-0.4062805-5.1764526,0.585144c-1.7868652,1.1223907-2.8794556,3.1151428-3.6525574,5.0157318
		c-0.1445007,0.3551788-1.1296387,3.7023163-1.1968079,3.7023163c-0.5313416,0-1.0627136,0-1.5940552,0
		c-1.298645,0-2.59729,0-3.8959351,0c0.5024719-7.3612823,0.6749268-14.7470245,0.815155-22.1224976
		c0.0991211-5.2140503,0.1594849-10.4288177,0.1986084-15.6436462c0.0223999-2.9891357,0.0375061-5.9783173,0.0469055-8.967514
		c0.0047913-1.5252533,0.0080872-3.0504913,0.0100708-4.5757294c0.0006104-0.4614716-0.1390991-3.5473022,0.1424255-3.5473022
		c1.3681946,0,2.7364197,0,4.1046448,0c0.4150696,0,0.8301392,0,1.2452087,0c0.0629272,0,0.5559082,4.0654449,0.6166992,4.4569855
		c0.8843384,5.6967163,2.1855164,11.3407135,4.0711365,16.7925262c3.4151001,9.8738861,9.0350037,20.0123291,18.438385,25.2972717
		c8.1094055,4.5576935,22.269104,5.6427765,27.3659973-3.959549c2.4894714-4.6900177,1.9978027-10.8261719,0.6889954-15.7910919
		c-1.4472046-5.489975-4.6441345-10.5580292-8.32901-14.8232727c-6.0369263-6.9877014-13.2788696-12.796463-20.0119934-19.0607452
		c-7.842804-7.2966919-16.1314697-14.7421875-21.7002563-23.9985657c-2.9916687-4.9727631-5.2326355-10.2671967-6.121582-16.0280762
		c-0.8613281-5.581955-0.718811-11.4138641,0.9261169-16.8420105c3.0892029-10.1942749,11.3348694-18.0709915,20.6348877-22.8143539
		C324.7642517,98.0011368,343.1861267,97.2425995,359.4336548,101.325798
		C365.6470032,102.8918228,353.2167053,99.7634048,359.4336548,101.325798z"/>
	<path d="M530.2436523,200.9156189c1.140686,0.4239807,2.2813721,0.8479614,3.4221191,1.2719421
		c0.4208984,0.1564484,0.8417969,0.3128967,1.2627563,0.4693451c0.0817871,0.030426-1.2550659,3.6806793-1.3843994,4.0255585
		c-2.0665283,5.5112152-4.71698,10.7987518-7.8912354,15.7552643c-5.9381104,9.2722168-14.1329956,17.0205841-24.1106567,21.8136902
		c-10.1011963,4.8524628-21.5341492,5.7816315-32.5634766,4.6663361c-9.8728333-0.9983673-19.5493774-3.9720612-27.894928-9.4186096
		c-7.3097534-4.7705994-13.4312439-11.1775208-17.6296692-18.8396606c-4.4593201-8.1382599-6.883728-17.2644501-8.1908264-26.406601
		c-1.6218567-11.3436279-1.8453674-23.0983429-0.4790039-34.4785767
		c1.2246094-10.1995392,3.9783936-20.2631073,9.0837097-29.2281799c5.071991-8.906601,12.1737061-16.5553818,21.0340881-21.7754211
		c9.5014343-5.5977249,20.4475403-8.5189896,31.3823242-9.4459991c15.3239746-1.2991104,32.2025452,0.62854,43.9388733,11.5302277
		c11.4731445,10.6571732,15.2320557,26.9320221,16.1082153,41.9999847c0.1488647,2.5595093,0.2160645,5.1235504,0.2160645,7.6873016
		c-7.4911499,0-14.9822998,0-22.4733887,0c-12.4769287,0-24.9538269,0-37.4307251,0c-3.4222412,0-6.8444824,0-10.2667236,0
		c-0.2449341,0-0.4898682,0-0.7348022,0c-0.1795349,0-0.2396851,3.7419128-0.249115,4.0920715
		c-0.1565552,5.8143921-0.1056519,11.6523895,0.4437866,17.4463501c0.8121643,8.5647278,2.6031494,17.7579956,7.7808838,24.8523102
		c2.85495,3.9117279,6.6452637,7.30513,10.9770508,9.4941559c4.3952637,2.2210846,9.2427368,3.0307922,14.1357727,2.8293457
		c6.0765381-0.2501678,12.025177-1.9092255,17.288208-4.9720764
		C521.7037354,210.9758759,526.4104004,206.2212219,530.2436523,200.9156189z M470.5571899,117.2204361
		c-1.9085999,4.9387054-2.9483643,10.2096252-3.7564697,15.425499c-1.162262,7.5019684-1.7590027,15.0889282-2.1451111,22.6665344
		c9.8416443,0,19.6833191,0,29.5249939,0c0.6495361,0,1.2990723,0,1.9486084,0c0.1026306,0,0.2052307,0,0.3078308,0
		c0.0329285,0,0.0249939-3.8889008,0.0232849-4.2557678c-0.0270691-5.8084259-0.2568359-11.6220093-0.8360291-17.4030762
		c-0.4789124-4.7802887-1.1930237-9.5494003-2.3332214-14.2194901c-1.0281372-4.215126-2.4795532-9.1487198-5.8599243-12.1276245
		c-2.4841003-2.189064-5.9376526-2.4007568-8.8544617-0.925499
		C474.4619751,108.4621353,472.1413574,113.1191864,470.5571899,117.2204361
		C467.5157776,125.0904236,473.5961914,109.3528671,470.5571899,117.2204361z"/>
	<path d="M694.6167603,233.7102509c2.2603149,3.7704468,6.3253784,5.4280396,10.5750732,5.663559
		c0.7902832,0.043808,1.2945557-0.2875061,1.2945557,0.5377655c0,0.6631165,0,1.3262329,0,1.9893494
		c0,1.0921936,0,2.1843719,0,3.2765656c-11.8512573-1.1108246-23.8045044-0.96492-35.6815186-0.3519745
		c-9.7493896,0.5031281-19.5112305,1.4379425-29.1018066,3.3027649c0-6.4832001,0-12.9664001,0-19.4496002
		c-2.4931641,4.7505188-5.623291,9.253418-9.6782837,12.805542c-3.6879272,3.2305603-8.0709839,5.4295502-12.8218994,6.6102295
		c-5.5100708,1.3693085-11.3195801,1.5018005-16.9511719,0.967392c-5.4718018-0.5192413-10.8690796-1.8198547-15.9230347-3.9933777
		c-9.4221191-4.0521393-16.953186-10.9506378-22.2844849-19.6673889
		c-5.3695068-8.7793732-8.5094604-18.6816559-10.1799927-28.7912903
		c-1.9242554-11.6447906-2.2787476-23.7147217-1.2587891-35.4669037c0.9080811-10.4631348,3.1577148-20.9133759,7.7205811-30.422226
		c4.4382935-9.2493591,11.0053711-17.4374924,19.7282104-22.9570999c9.2362671-5.8444901,20.0719604-8.4696274,30.9244385-8.7561417
		c10.4710083-0.2764435,21.781189,1.0622025,30.7244263,6.9463654c0-9.7357635,0-19.4715271,0-29.2072906
		c0-4.2615967,0-8.5231934,0-12.7847862c0-3.6630898-0.1540527-7.342968-0.7958984-10.9560509
		c-0.694397-3.9088249-1.9741211-8.1362343-5.1725464-10.7379951c-1.3532715-1.1008339-2.9598999-1.8428535-4.6428833-2.2796173
		c-0.9478149-0.2459908-1.9185181-0.3991013-2.8937378-0.4822731c-0.3245239-0.0276794-1.9194946,0.055397-1.9194946-0.213253
		c0-1.8777084,0-3.7554169,0-5.6331253c11.9505615,1.1206017,24.0095215,0.9703369,35.9851685,0.3304253
		c9.6955566-0.5180779,19.4102783-1.4699936,28.932251-3.4153442c0,3.4757843,0,6.9515686,0,10.4273529
		c0,8.947506,0,17.8950119,0,26.8425217c0,12.1994629,0,24.3989258,0,36.5983963c0,13.2316513,0,26.4633102,0,39.6949692
		c0,12.0440826,0,24.0881653,0,36.1322479c0,8.636734,0,17.273468,0,25.9102173
		c0,4.7102356-0.149353,9.4730682,0.1538086,14.1759796C691.6397095,224.8537598,692.2506104,229.7700195,694.6167603,233.7102509
		C696.8956909,237.5117188,692.3353882,229.9111938,694.6167603,233.7102509z M631.5770874,232.4342194
		c4.6709595-2.6464844,8.3273315-7.2060242,9.586853-12.4561615c0.4227295-1.7618713,0.5391235-3.5547485,0.5391235-5.3583069
		c0-2.5866547,0-5.1733093,0-7.7599487c0-10.9785614,0-21.9571228,0-32.9356689c0-12.8327026,0-25.6654053,0-38.4981079
		c0-7.623436,0-15.2468643,0-22.8703003c0-0.2348557,0-0.4697189,0-0.7045746c0-0.5771179-2.2237549-1.3538208-2.7106323-1.5762177
		c-4.447937-2.0318222-9.8181763-2.8638306-14.6069336-1.6311569c-8.6170654,2.2181091-13.1411133,10.9335403-15.6682739,18.7611084
		c-2.7937622,8.653389-3.9195557,17.8297958-4.5806885,26.8652573c-0.880249,12.0292816-0.8683472,24.1623688-0.3161011,36.2071991
		c0.4040527,8.8124847,1.0522461,17.7925415,3.2243652,26.3731079c1.0081787,3.9824219,2.4478149,7.9431915,4.652832,11.4259796
		c2.022583,3.1946106,4.9406738,6.0557404,8.8319092,6.6062775
		C624.2766113,235.4128418,628.3338623,234.2748108,631.5770874,232.4342194
		C634.5714111,230.7377014,628.5792236,234.1355896,631.5770874,232.4342194z"/>
	<path d="M842.2227783,116.7516022c13.4115601,12.9736023,17.4309082,32.6012115,18.2235107,50.5464325
		c0.487854,11.046051-0.0009155,22.2843018-2.3004761,33.1231079c-1.8239746,8.597168-4.8927612,17.0571899-9.9615479,24.2950287
		c-10.8796997,15.5353394-29.6158447,22.5708008-47.8996582,24.1852875
		c-19.8602295,1.7536774-41.9223022-0.833786-58.1317139-13.3935394
		c-6.5790405-5.0977173-11.6738892-11.6300201-15.1738281-19.1721802
		c-4.0565796-8.7417297-6.0491943-18.3345032-6.9725952-27.884201c-1.0845337-11.2162323-0.944519-22.7148895,0.682373-33.8722992
		c1.3285522-9.1111755,3.7984009-18.1958008,8.3063354-26.2756805
		c9.0127563-16.1539688,25.9735718-25.0971146,43.7860718-28.0070038
		c10.9250488-1.7847443,22.3338623-1.8288345,33.2803345-0.1948776c9.5335693,1.4230576,18.9144897,4.3859863,27.1052246,9.5486221
		C836.418335,111.6997528,839.4596558,114.0795135,842.2227783,116.7516022
		C854.4718018,128.6006775,829.9713135,104.9037247,842.2227783,116.7516022z M776.0317993,121.7807541
		c-2.4724121,8.0688095-3.5505371,16.5590439-4.2672119,24.942131c-1.0133057,11.8526459-1.1826172,23.7884521-0.9577637,35.6772003
		c0.1985474,10.497345,0.7424316,21.0464478,2.3739014,31.4294739c0.6063232,3.8588257,1.3713989,7.7016602,2.4422607,11.4603119
		c1.3079834,4.5908051,2.9835815,9.308548,5.7769775,13.2266388c1.8952637,2.6583557,4.546936,5.0111084,7.934082,5.2905273
		c3.2687988,0.2696533,6.1130981-1.4291687,8.1975098-3.8309479c3.1592407-3.6403046,4.9497681-8.4157562,6.3568115-12.9558716
		c1.1321411-3.6529999,1.9460449-7.3991852,2.5917969-11.1663971c1.7258301-10.0682373,2.3387451-20.3225708,2.6085815-30.5218811
		c0.3183594-12.0343933,0.2011108-24.1194916-0.6841431-36.1290436c-0.6392822-8.6720123-1.6315918-17.4364471-3.9508667-25.839653
		c-1.2736816-4.6147842-2.909729-9.3471756-5.6411743-13.3221359c-1.857666-2.7033539-4.4737549-5.1613312-7.8757935-5.5167465
		C782.1335449,103.6046753,778.0314941,115.2476959,776.0317993,121.7807541
		C772.4973755,133.3156586,779.562561,110.245842,776.0317993,121.7807541z"/>
	<path d="M965.4865723,103.1371155c0,0.6487122,0.1364136,5.4992065-0.1223145,5.4992065c-1.7408447,0-3.4817505,0-5.2226563,0
		c-6.0761719,0-12.1523438,0-18.2285767,0c-0.192688,0-3.387146-0.0129089-3.387146,0.0116501c0,0.4476166,0,0.8952408,0,1.342865
		c0,2.8419266,0,5.6838455,0,8.5257721c0,10.9139633,0,21.8279343,0,32.7419052c0,13.0177002,0,26.0353851,0,39.0530853
		c0,9.2777405,0,18.5554657,0,27.8331909c0,1.5321655-0.0165405,3.0653534,0.0022583,4.5974731
		c0.027771,2.2676086,0.237915,4.818985,1.5065308,6.7752838c1.2005005,1.8513489,3.364502,2.5522461,5.4674072,2.7298737
		c5.5302124,0.4671021,10.9673462-2.4356384,14.6775513-6.3678741c0.4933472-0.5228882,0.9648438-1.0662842,1.4160767-1.6258545
		c0.0548706,0.0007629,0.2016602,0.1625977,0.2410278,0.1943512c0.5365601,0.432663,1.0730591,0.8653412,1.6096191,1.2980042
		c0.5616455,0.4528961,1.12323,0.905777,1.6848755,1.3586731c0.668335,0.5389252,0.6694946,0.4343109,0.1771851,1.2523041
		c-2.3555908,3.9140778-5.2226563,7.532547-8.6374512,10.5769043c-6.7526245,6.0201111-15.335022,9.2749176-24.2792358,10.1374817
		c-9.6771851,0.9332428-20.5650635-0.0093994-29.0112915-5.2192688c-3.9742432-2.4514313-7.276123-5.897171-9.506897-10.0043793
		c-2.3146973-4.2617645-3.3114624-9.0042877-3.9073486-13.7749176c-1.1872559-9.5053253-0.9331055-19.1430511-0.9331055-28.7071838
		c0-11.7628174,0-23.52565,0-35.2884827c0-11.9590607,0-23.9181366,0-35.8771973c0-3.3276291,0-6.6552658,0-9.9829025
		c0-0.52388,0-1.0477676,0-1.5716476c0-0.0190277-4.1069336-0.0091095-4.3569336-0.0091095c-5.395813,0-10.791626,0-16.187439,0
		c-0.5404663,0-0.2453003-1.1856308-0.2453003-1.6032715c0-1.2865677,0-2.573143,0-3.8597107
		c0-0.0763779,4.3897095-0.0362244,4.6935425-0.0362244c5.312561,0,10.6251221,0,15.9376831,0
		c0.3570557,0,0.1584473-2.2040863,0.1584473-2.5361633c0-2.5906982,0-5.1814041,0-7.7721024c0-6.126709,0-12.2534103,0-18.3801193
		c0-1.3376312,0-2.6752625,0-4.0129013c0,0.3712006,15.4475098-0.8824844,16.940979-1.081459
		c11.4862671-1.5303574,22.5444946-5.1366119,32.5518188-11.0156326c0,9.5738525,0,19.1477051,0,28.7215576
		c0,4.8814087,0,9.7628174,0,14.6442184c0,0.4305725,0,0.8611374,0,1.2917023c0,0.2305145,0.145874,0.1408997,0.3670044,0.1408997
		c1.9942017,0,3.9884033,0,5.982605,0C951.7458496,103.1371155,958.6162109,103.1371155,965.4865723,103.1371155z"/>
	<path d="M1008.7407227,216.5420074c4.7663574,2.7381287,8.0428467,7.6981049,8.6687012,13.1663971
		c0.6368408,5.5642242-1.4467163,11.1564789-5.5825806,14.937912c-4.1881104,3.8291473-10.0324097,5.5210419-15.5978394,4.2887115
		c-5.3618164-1.1872559-9.9932251-4.9931946-12.2874756-9.9661713c-3.1303101-6.7853699-1.3745728-15.1627502,4.1394653-20.1848907
		C993.6943359,213.6714478,1002.1651001,212.7736816,1008.7407227,216.5420074
		C1011.4667358,218.1080322,1006.0122681,214.9783936,1008.7407227,216.5420074z"/>
</g>
</svg>
